<svg width="34" height="34" viewBox="0 0 34 34" fill="none" xmlns="http://www.w3.org/2000/svg">
<path d="M16.2917 31.1666C14.1194 31.1666 12.2778 30.411 10.7667 28.8999C9.25556 27.3888 8.5 25.5471 8.5 23.3749V8.49992C8.5 6.94159 9.05486 5.60756 10.1646 4.49784C11.2743 3.38811 12.6083 2.83325 14.1667 2.83325C15.725 2.83325 17.059 3.38811 18.1688 4.49784C19.2785 5.60756 19.8333 6.94159 19.8333 8.49992V21.9583C19.8333 22.9499 19.491 23.7881 18.8063 24.4728C18.1215 25.1576 17.2833 25.4999 16.2917 25.4999C15.3 25.4999 14.4618 25.1576 13.7771 24.4728C13.0924 23.7881 12.75 22.9499 12.75 21.9583V9.49992C12.75 8.94763 13.1977 8.49992 13.75 8.49992H13.875C14.4273 8.49992 14.875 8.94763 14.875 9.49992V21.9583C14.875 22.3596 15.0108 22.6961 15.2823 22.9676C15.5538 23.2392 15.8903 23.3749 16.2917 23.3749C16.6931 23.3749 17.0295 23.2392 17.301 22.9676C17.5726 22.6961 17.7083 22.3596 17.7083 21.9583V8.49992C17.7083 7.50825 17.366 6.67006 16.6813 5.98534C15.9965 5.30061 15.1583 4.95825 14.1667 4.95825C13.175 4.95825 12.3368 5.30061 11.6521 5.98534C10.9674 6.67006 10.625 7.50825 10.625 8.49992V23.3749C10.625 24.9333 11.1799 26.2673 12.2896 27.377C13.3993 28.4867 14.7333 29.0416 16.2917 29.0416C17.85 29.0416 19.184 28.4867 20.2938 27.377C21.4035 26.2673 21.9583 24.9333 21.9583 23.3749V9.49992C21.9583 8.94763 22.406 8.49992 22.9583 8.49992H23.0833C23.6356 8.49992 24.0833 8.94763 24.0833 9.49992V15.9374V23.3749C24.0833 25.5471 23.3278 27.3888 21.8167 28.8999C20.3056 30.411 18.4639 31.1666 16.2917 31.1666Z" fill="black"/>
</svg>
