<svg width="20" height="20" viewBox="0 0 20 20" fill="none" xmlns="http://www.w3.org/2000/svg">
<path fill-rule="evenodd" clip-rule="evenodd" d="M12.1709 12.375L15.1359 10.6225C16.0444 10.0857 16.7513 9.26515 17.1478 8.28718C17.5442 7.3092 17.6082 6.22803 17.33 5.2101C17.0517 4.19218 16.4465 3.29394 15.6077 2.65367C14.7688 2.01341 13.7428 1.66661 12.6875 1.66667H10.985C10.2109 1.66667 9.58336 2.29417 9.58336 3.06834V6.16667C9.58336 6.41417 9.58336 6.54917 9.57502 6.64584L9.57419 6.65751H9.56252C9.46669 6.66667 9.33086 6.66667 9.08336 6.66667H5.47002L1.79002 3.5325C1.6207 3.4 1.40672 3.33807 1.19281 3.35965C0.97889 3.38123 0.781592 3.48465 0.642149 3.6483C0.502706 3.81195 0.431911 4.02317 0.44456 4.2378C0.457209 4.45243 0.552323 4.65387 0.710023 4.80001L9.31169 12.1275L7.38669 13.265C6.86985 12.792 6.20001 12.5209 5.49968 12.5011C4.79935 12.4814 4.11532 12.7144 3.57268 13.1576C3.03004 13.6008 2.66505 14.2245 2.54445 14.9146C2.42386 15.6048 2.55572 16.3153 2.91592 16.9162C3.27613 17.5171 3.8406 17.9683 4.50612 18.1872C5.17164 18.4062 5.89374 18.3783 6.54035 18.1086C7.18697 17.8389 7.71491 17.3454 8.02761 16.7185C8.34032 16.0915 8.4169 15.3729 8.24336 14.6942L10.6534 13.2708L11.8809 14.3167C11.6166 14.9655 11.5947 15.6877 11.8191 16.3513C12.0435 17.015 12.4993 17.5757 13.1032 17.9309C13.707 18.2861 14.4185 18.4121 15.1076 18.2859C15.7967 18.1596 16.4173 17.7896 16.856 17.2434C17.2947 16.6972 17.5222 16.0114 17.4968 15.3113C17.4714 14.6112 17.1949 13.9436 16.7178 13.4306C16.2407 12.9176 15.5949 12.5935 14.8985 12.5175C14.2021 12.4415 13.5015 12.6187 12.925 13.0167L12.1709 12.3742V12.375ZM15.8334 6.47917C15.8334 6.06605 15.752 5.65698 15.5939 5.27531C15.4358 4.89364 15.2041 4.54685 14.912 4.25473C14.6198 3.96261 14.2731 3.73089 13.8914 3.5728C13.5097 3.41471 13.1006 3.33334 12.6875 3.33334H11.25V6.19334C11.25 6.40334 11.25 6.60834 11.2359 6.78167C11.2231 7.00454 11.1661 7.22266 11.0684 7.42334C10.9086 7.73693 10.6536 7.99188 10.34 8.15167C10.1393 8.24948 9.92123 8.30642 9.69836 8.31917C9.52502 8.33334 9.32002 8.33334 9.11002 8.33334H7.42669L10.8292 11.2317L14.2875 9.1875C14.7584 8.90937 15.1486 8.5133 15.4196 8.03836C15.6907 7.56343 15.8333 7.02603 15.8334 6.47917ZM13.3334 15.4167C13.3334 15.0852 13.4651 14.7672 13.6995 14.5328C13.9339 14.2984 14.2518 14.1667 14.5834 14.1667C14.9149 14.1667 15.2328 14.2984 15.4672 14.5328C15.7017 14.7672 15.8334 15.0852 15.8334 15.4167C15.8334 15.7482 15.7017 16.0661 15.4672 16.3006C15.2328 16.535 14.9149 16.6667 14.5834 16.6667C14.2518 16.6667 13.9339 16.535 13.6995 16.3006C13.4651 16.0661 13.3334 15.7482 13.3334 15.4167ZM5.41669 14.1667C5.08517 14.1667 4.76723 14.2984 4.53281 14.5328C4.29839 14.7672 4.16669 15.0852 4.16669 15.4167C4.16669 15.7482 4.29839 16.0661 4.53281 16.3006C4.76723 16.535 5.08517 16.6667 5.41669 16.6667C5.74821 16.6667 6.06615 16.535 6.30057 16.3006C6.53499 16.0661 6.66669 15.7482 6.66669 15.4167C6.66669 15.0852 6.53499 14.7672 6.30057 14.5328C6.06615 14.2984 5.74821 14.1667 5.41669 14.1667Z" fill="black"/>
</svg>
