<svg width="20" height="20" viewBox="0 0 20 20" fill="none" xmlns="http://www.w3.org/2000/svg">
<path d="M2.5 5.83333L5 3.33333H7.5C7.5 3.66164 7.56467 3.98672 7.6903 4.29004C7.81594 4.59335 8.00008 4.86894 8.23223 5.10109C8.46442 5.33324 8.74 5.51739 9.04325 5.64303C9.34658 5.76866 9.67167 5.83333 10 5.83333C10.3283 5.83333 10.6534 5.76866 10.9567 5.64303C11.26 5.51739 11.5356 5.33324 11.7677 5.10109C11.9999 4.86894 12.1841 4.59335 12.3097 4.29004C12.4353 3.98672 12.5 3.66164 12.5 3.33333H15L17.5 5.83333L17.0833 9.99999L15 8.74999V16.6667H5V8.74999L2.91667 9.99999L2.5 5.83333Z" stroke="black" stroke-width="1.5" stroke-linecap="square" stroke-linejoin="round"/>
</svg>
