<svg width="20" height="20" viewBox="0 0 20 20" fill="none" xmlns="http://www.w3.org/2000/svg">
<path fill-rule="evenodd" clip-rule="evenodd" d="M8.33331 10.4167C8.33331 9.42211 8.7284 8.46828 9.43166 7.76502C10.1349 7.06176 11.0888 6.66667 12.0833 6.66667C13.0779 6.66667 14.0317 7.06176 14.735 7.76502C15.4382 8.46828 15.8333 9.42211 15.8333 10.4167C15.8333 11.4112 15.4382 12.3651 14.735 13.0683C14.0317 13.7716 13.0779 14.1667 12.0833 14.1667C11.0888 14.1667 10.1349 13.7716 9.43166 13.0683C8.7284 12.3651 8.33331 11.4112 8.33331 10.4167ZM12.0833 8.33334C11.5308 8.33334 11.0009 8.55283 10.6102 8.94353C10.2195 9.33423 9.99998 9.86414 9.99998 10.4167C9.99998 10.9692 10.2195 11.4991 10.6102 11.8898C11.0009 12.2805 11.5308 12.5 12.0833 12.5C12.6358 12.5 13.1658 12.2805 13.5565 11.8898C13.9472 11.4991 14.1666 10.9692 14.1666 10.4167C14.1666 9.86414 13.9472 9.33423 13.5565 8.94353C13.1658 8.55283 12.6358 8.33334 12.0833 8.33334Z" fill="black"/>
<path d="M4.58333 7.91667C4.36232 7.91667 4.15036 8.00447 3.99408 8.16075C3.8378 8.31703 3.75 8.52899 3.75 8.75001C3.75 8.97102 3.8378 9.18298 3.99408 9.33926C4.15036 9.49554 4.36232 9.58334 4.58333 9.58334H6.25C6.47101 9.58334 6.68298 9.49554 6.83926 9.33926C6.99554 9.18298 7.08333 8.97102 7.08333 8.75001C7.08333 8.52899 6.99554 8.31703 6.83926 8.16075C6.68298 8.00447 6.47101 7.91667 6.25 7.91667H4.58333Z" fill="black"/>
<path fill-rule="evenodd" clip-rule="evenodd" d="M2.97331 3.33333H14.3675C15.0383 3.33333 15.5925 3.33333 16.0425 3.37C16.5116 3.40833 16.9425 3.49083 17.3466 3.69666C17.9738 4.01623 18.4837 4.52615 18.8033 5.15333C19.0091 5.5575 19.0916 5.98833 19.13 6.45666C19.1666 6.90833 19.1666 7.46166 19.1666 8.13166V12.7008C19.1666 13.3717 19.1666 13.9258 19.13 14.3758C19.0916 14.845 19.0091 15.2758 18.8033 15.68C18.4837 16.3072 17.9738 16.8171 17.3466 17.1367C16.9425 17.3425 16.5116 17.425 16.0433 17.4633C15.5925 17.5 15.0383 17.5 14.3683 17.5H2.97248C2.76248 17.5 2.55748 17.5 2.38415 17.4858C2.16127 17.4731 1.94316 17.4161 1.74248 17.3183C1.42889 17.1585 1.17393 16.9036 1.01415 16.59C0.916358 16.3893 0.859423 16.1712 0.846646 15.9483C0.833313 15.775 0.833313 15.57 0.833313 15.36V5.47333C0.833313 5.26333 0.833313 5.05833 0.84748 4.88499C0.863313 4.69416 0.89998 4.46916 1.01498 4.24333C1.17477 3.92974 1.42972 3.67478 1.74331 3.51499C1.96915 3.39999 2.19415 3.36333 2.38498 3.3475C2.55831 3.33333 2.76331 3.33333 2.97331 3.33333ZM2.50915 5.00916V5.02083C2.49998 5.11666 2.49998 5.25249 2.49998 5.49999V15.3333C2.49998 15.5808 2.49998 15.7158 2.50831 15.8125L2.50915 15.8242H2.52081C2.61748 15.8325 2.75248 15.8333 2.99998 15.8333H14.3333C15.0475 15.8333 15.5325 15.8333 15.9075 15.8017C16.2725 15.7725 16.46 15.7183 16.59 15.6517C16.9036 15.4919 17.1585 15.2369 17.3183 14.9233C17.385 14.7933 17.4391 14.6067 17.4683 14.2408C17.4991 13.8658 17.5 13.3808 17.5 12.6667V8.16666C17.5 7.4525 17.5 6.96749 17.4683 6.59249C17.4391 6.22749 17.385 6.03999 17.3183 5.91C17.1585 5.59641 16.9036 5.34145 16.59 5.18166C16.46 5.115 16.2733 5.06083 15.9075 5.03166C15.5325 5 15.0475 4.99999 14.3333 4.99999H2.99998C2.75248 4.99999 2.61748 5 2.52081 5.00833L2.50915 5.00916Z" fill="black"/>
</svg>
