<svg width="30" height="30" viewBox="0 0 30 30" fill="none" xmlns="http://www.w3.org/2000/svg">
<path d="M0 25V21.5313C0 20.8229 0.177083 20.1667 0.53125 19.5625C0.885417 18.9583 1.375 18.5 2 18.1875C2.29167 18.0417 2.57292 17.9062 2.84375 17.7812C3.13542 17.6563 3.4375 17.5417 3.75 17.4375V25H0ZM5 16.25C3.95833 16.25 3.07292 15.8854 2.34375 15.1563C1.61458 14.4271 1.25 13.5417 1.25 12.5C1.25 11.4583 1.61458 10.5729 2.34375 9.84375C3.07292 9.11458 3.95833 8.75 5 8.75C6.04167 8.75 6.92708 9.11458 7.65625 9.84375C8.38542 10.5729 8.75 11.4583 8.75 12.5C8.75 13.5417 8.38542 14.4271 7.65625 15.1563C6.92708 15.8854 6.04167 16.25 5 16.25ZM5 13.75C5.35417 13.75 5.64583 13.6354 5.875 13.4062C6.125 13.1563 6.25 12.8542 6.25 12.5C6.25 12.1458 6.125 11.8542 5.875 11.625C5.64583 11.375 5.35417 11.25 5 11.25C4.64583 11.25 4.34375 11.375 4.09375 11.625C3.86458 11.8542 3.75 12.1458 3.75 12.5C3.75 12.8542 3.86458 13.1563 4.09375 13.4062C4.34375 13.6354 4.64583 13.75 5 13.75ZM5 25V21.5C5 20.7917 5.17708 20.1458 5.53125 19.5625C5.90625 18.9583 6.39583 18.5 7 18.1875C8.29167 17.5417 9.60417 17.0625 10.9375 16.75C12.2708 16.4167 13.625 16.25 15 16.25C16.375 16.25 17.7292 16.4167 19.0625 16.75C20.3958 17.0625 21.7083 17.5417 23 18.1875C23.6042 18.5 24.0833 18.9583 24.4375 19.5625C24.8125 20.1458 25 20.7917 25 21.5V25H5ZM7.5 22.5H22.5V21.5C22.5 21.2708 22.4375 21.0625 22.3125 20.875C22.2083 20.6875 22.0625 20.5417 21.875 20.4375C20.75 19.875 19.6146 19.4583 18.4688 19.1875C17.3229 18.8958 16.1667 18.75 15 18.75C13.8333 18.75 12.6771 18.8958 11.5312 19.1875C10.3854 19.4583 9.25 19.875 8.125 20.4375C7.9375 20.5417 7.78125 20.6875 7.65625 20.875C7.55208 21.0625 7.5 21.2708 7.5 21.5V22.5ZM15 15C13.625 15 12.4479 14.5104 11.4688 13.5312C10.4896 12.5521 10 11.375 10 10C10 8.625 10.4896 7.44792 11.4688 6.46875C12.4479 5.48958 13.625 5 15 5C16.375 5 17.5521 5.48958 18.5312 6.46875C19.5104 7.44792 20 8.625 20 10C20 11.375 19.5104 12.5521 18.5312 13.5312C17.5521 14.5104 16.375 15 15 15ZM15 12.5C15.6875 12.5 16.2708 12.2604 16.75 11.7812C17.25 11.2813 17.5 10.6875 17.5 10C17.5 9.3125 17.25 8.72917 16.75 8.25C16.2708 7.75 15.6875 7.5 15 7.5C14.3125 7.5 13.7188 7.75 13.2188 8.25C12.7396 8.72917 12.5 9.3125 12.5 10C12.5 10.6875 12.7396 11.2813 13.2188 11.7812C13.7188 12.2604 14.3125 12.5 15 12.5ZM25 16.25C23.9583 16.25 23.0729 15.8854 22.3438 15.1563C21.6146 14.4271 21.25 13.5417 21.25 12.5C21.25 11.4583 21.6146 10.5729 22.3438 9.84375C23.0729 9.11458 23.9583 8.75 25 8.75C26.0417 8.75 26.9271 9.11458 27.6563 9.84375C28.3854 10.5729 28.75 11.4583 28.75 12.5C28.75 13.5417 28.3854 14.4271 27.6563 15.1563C26.9271 15.8854 26.0417 16.25 25 16.25ZM25 13.75C25.3542 13.75 25.6458 13.6354 25.875 13.4062C26.125 13.1563 26.25 12.8542 26.25 12.5C26.25 12.1458 26.125 11.8542 25.875 11.625C25.6458 11.375 25.3542 11.25 25 11.25C24.6458 11.25 24.3438 11.375 24.0938 11.625C23.8646 11.8542 23.75 12.1458 23.75 12.5C23.75 12.8542 23.8646 13.1563 24.0938 13.4062C24.3438 13.6354 24.6458 13.75 25 13.75ZM26.25 25V17.4375C26.5625 17.5417 26.8542 17.6563 27.125 17.7812C27.4167 17.9062 27.7083 18.0417 28 18.1875C28.625 18.5 29.1146 18.9583 29.4688 19.5625C29.8229 20.1667 30 20.8229 30 21.5313V25H26.25Z" fill="#1D1B20"/>
</svg>
