<svg width="20" height="20" viewBox="0 0 20 20" fill="none" xmlns="http://www.w3.org/2000/svg">
<path fill-rule="evenodd" clip-rule="evenodd" d="M10.8083 6.11917C11.1608 5.48417 12.09 4.66334 13.2333 4.3225C14.3125 4.00084 15.5308 4.11584 16.6317 5.2325C17.9083 6.60167 17.7108 8.63334 16.4608 10.505C16.3994 10.596 16.3565 10.6982 16.3346 10.8058C16.3128 10.9134 16.3125 11.0243 16.3336 11.132C16.3547 11.2398 16.397 11.3423 16.4579 11.4337C16.5188 11.525 16.5971 11.6035 16.6884 11.6645C16.7797 11.7255 16.8822 11.7678 16.9899 11.7891C17.0976 11.8104 17.2085 11.8101 17.3161 11.7884C17.4237 11.7667 17.526 11.724 17.6171 11.6626C17.7081 11.6012 17.7862 11.5225 17.8467 11.4308C19.2967 9.25917 19.8967 6.27667 17.8417 4.085L17.835 4.07834L17.8275 4.07167C16.2325 2.44667 14.3442 2.25167 12.7567 2.72584C11.7005 3.04824 10.7468 3.64084 9.99001 4.445C9.24168 3.66232 8.30781 3.0813 7.27501 2.75584C5.69668 2.27084 3.81168 2.4475 2.17918 4.06334L2.17084 4.07167C0.094178 6.18667 0.709178 9.26417 2.15001 11.425C2.53251 12.0183 3.19168 12.7858 3.92501 13.575C4.7135 14.4146 5.52178 15.2354 6.34918 16.0367C7.06269 16.7259 7.78132 17.4098 8.50501 18.0883C8.50501 18.0883 9.33001 18.85 9.37418 18.8892L9.42418 18.935L9.44084 18.9508C9.52194 19.0244 9.61672 19.0812 9.71978 19.1181C9.82284 19.155 9.93216 19.1713 10.0415 19.166C10.1508 19.1606 10.2581 19.1338 10.357 19.087C10.456 19.0402 10.5448 18.9744 10.6183 18.8933C10.6919 18.8122 10.7487 18.7175 10.7856 18.6144C10.8226 18.5113 10.8388 18.402 10.8335 18.2927C10.8281 18.1833 10.8013 18.0761 10.7545 17.9771C10.7077 17.8782 10.6419 17.7894 10.5608 17.7158H10.56L10.545 17.7017L10.4967 17.6575L10.3125 17.4892C9.36597 16.6213 8.43253 15.7393 7.51251 14.8433C6.70447 14.0608 5.91508 13.2591 5.14501 12.4392C4.41251 11.6517 3.84251 10.9758 3.54834 10.5175L3.54418 10.5117L3.54001 10.505C2.28168 8.62167 2.10334 6.525 3.35834 5.24334C4.49668 4.11834 5.71835 4.02 6.78751 4.34917C7.92085 4.69667 8.84001 5.51834 9.19751 6.13417C9.55584 6.7525 10.4592 6.7475 10.8083 6.11917Z" fill="black"/>
<path d="M15.8333 13.3333C15.8333 13.1123 15.7455 12.9004 15.5892 12.7441C15.433 12.5878 15.221 12.5 15 12.5C14.779 12.5 14.567 12.5878 14.4107 12.7441C14.2545 12.9004 14.1667 13.1123 14.1667 13.3333V15H12.5C12.279 15 12.067 15.0878 11.9107 15.2441C11.7545 15.4004 11.6667 15.6123 11.6667 15.8333C11.6667 16.0543 11.7545 16.2663 11.9107 16.4226C12.067 16.5789 12.279 16.6667 12.5 16.6667H14.1667V18.3333C14.1667 18.5543 14.2545 18.7663 14.4107 18.9226C14.567 19.0789 14.779 19.1667 15 19.1667C15.221 19.1667 15.433 19.0789 15.5892 18.9226C15.7455 18.7663 15.8333 18.5543 15.8333 18.3333V16.6667H17.5C17.721 16.6667 17.933 16.5789 18.0892 16.4226C18.2455 16.2663 18.3333 16.0543 18.3333 15.8333C18.3333 15.6123 18.2455 15.4004 18.0892 15.2441C17.933 15.0878 17.721 15 17.5 15H15.8333V13.3333Z" fill="black"/>
</svg>
