<svg width="20" height="20" viewBox="0 0 20 20" fill="none" xmlns="http://www.w3.org/2000/svg">
<g clip-path="url(#clip0_4727_1755)">
<path fill-rule="evenodd" clip-rule="evenodd" d="M5.38809 11.7432C6.14573 11.7432 6.93883 12.1243 7.69303 12.8624C8.60402 14.0126 8.89014 14.9888 8.54337 15.7613C7.78573 17.4517 4.24478 18.2082 2.09893 18.4611C2.45944 17.6005 2.88174 16.202 2.88174 14.3502C2.88174 13.3385 3.57414 12.3142 4.52632 11.916C4.80443 11.8004 5.09397 11.7432 5.38809 11.7432ZM7.77772 10.0024C8.34079 10.3034 8.8867 10.6834 9.39369 11.1847L9.5379 11.3472C9.82973 11.7157 10.0655 12.0762 10.2715 12.4321C9.96364 12.7056 9.64776 12.9815 9.32618 13.2607C9.12932 12.891 8.87754 12.5111 8.5674 12.122L8.52276 12.0716C8.0192 11.5749 7.48703 11.203 6.94227 10.9569C7.21694 10.6376 7.49504 10.3195 7.77772 10.0024ZM18.6787 1.63647C18.7599 1.71772 18.8675 1.86308 18.8549 2.18009C18.792 3.80178 15.8931 7.33014 11.1413 11.6516C10.933 11.3151 10.7041 10.9764 10.4351 10.6365L10.2005 10.3732C9.68782 9.86625 9.1442 9.44738 8.57541 9.11206C12.2274 5.09273 16.1609 1.46251 18.0572 1.38468C18.38 1.38354 18.5207 1.47853 18.6787 1.63647ZM19.9982 2.22472C20.02 1.66623 19.8437 1.18326 19.4134 0.752951C19.0563 0.395878 18.5596 0.219638 18.0114 0.241388C14.839 0.370701 8.50903 7.3599 5.72457 10.6182C5.16607 10.5621 4.6133 10.6399 4.08456 10.8619C2.70321 11.4376 1.73728 12.8727 1.73728 14.3502C1.73728 17.1473 0.654625 18.785 0.644333 18.801L0 19.7578L1.14903 19.6937C1.87004 19.6548 8.2458 19.221 9.58825 16.2306C9.84231 15.6618 9.89268 15.0518 9.75419 14.4052C13.6534 11.0531 19.8803 5.24151 19.9982 2.22472Z" fill="black"/>
</g>
<defs>
<clipPath id="clip0_4727_1755">
<rect width="20" height="20" fill="white"/>
</clipPath>
</defs>
</svg>
