<svg width="30" height="30" viewBox="0 0 30 30" fill="none" xmlns="http://www.w3.org/2000/svg">
<path d="M8.75 11.25V8.75H26.25V11.25H8.75ZM8.75 16.25V13.75H26.25V16.25H8.75ZM8.75 21.25V18.75H26.25V21.25H8.75ZM5 11.25C4.64583 11.25 4.34896 11.1302 4.10938 10.8906C3.86979 10.651 3.75 10.3542 3.75 10C3.75 9.64583 3.86979 9.34896 4.10938 9.10938C4.34896 8.86979 4.64583 8.75 5 8.75C5.35417 8.75 5.65104 8.86979 5.89062 9.10938C6.13021 9.34896 6.25 9.64583 6.25 10C6.25 10.3542 6.13021 10.651 5.89062 10.8906C5.65104 11.1302 5.35417 11.25 5 11.25ZM5 16.25C4.64583 16.25 4.34896 16.1302 4.10938 15.8906C3.86979 15.651 3.75 15.3542 3.75 15C3.75 14.6458 3.86979 14.349 4.10938 14.1094C4.34896 13.8698 4.64583 13.75 5 13.75C5.35417 13.75 5.65104 13.8698 5.89062 14.1094C6.13021 14.349 6.25 14.6458 6.25 15C6.25 15.3542 6.13021 15.651 5.89062 15.8906C5.65104 16.1302 5.35417 16.25 5 16.25ZM5 21.25C4.64583 21.25 4.34896 21.1302 4.10938 20.8906C3.86979 20.651 3.75 20.3542 3.75 20C3.75 19.6458 3.86979 19.349 4.10938 19.1094C4.34896 18.8698 4.64583 18.75 5 18.75C5.35417 18.75 5.65104 18.8698 5.89062 19.1094C6.13021 19.349 6.25 19.6458 6.25 20C6.25 20.3542 6.13021 20.651 5.89062 20.8906C5.65104 21.1302 5.35417 21.25 5 21.25Z" fill="#1D1B20"/>
</svg>
