<svg width="20" height="20" viewBox="0 0 20 20" fill="none" xmlns="http://www.w3.org/2000/svg">
<path fill-rule="evenodd" clip-rule="evenodd" d="M4.60832 7.18167C4.86665 3.94667 7.16915 1.66667 9.99999 1.66667C12.8308 1.66667 15.1333 3.94667 15.3925 7.18167C15.5256 7.25277 15.637 7.3587 15.7146 7.48816C15.7923 7.61761 15.8333 7.76572 15.8333 7.91667V10C15.8333 10.221 15.7455 10.433 15.5892 10.5893C15.433 10.7455 15.221 10.8333 15 10.8333C14.735 11.7933 14.3292 12.7633 13.7425 13.6408L14.0125 15.5292C14.0344 15.6824 14.0986 15.8264 14.1978 15.9452C14.297 16.064 14.4273 16.1528 14.5742 16.2017L18.5967 17.5433C18.8017 17.6167 18.9699 17.7675 19.0652 17.9634C19.1604 18.1593 19.1752 18.3847 19.1064 18.5913C19.0376 18.798 18.8905 18.9694 18.6968 19.069C18.5031 19.1686 18.2781 19.1884 18.07 19.1242L14.0467 17.7825C13.6065 17.6356 13.2159 17.3691 12.9186 17.0127C12.6213 16.6564 12.429 16.2244 12.3633 15.765L12.2908 15.2625C12.2242 15.3183 12.1558 15.3725 12.0858 15.4258L12.0683 15.4392C11.9625 15.525 11.848 15.5996 11.7267 15.6617C11.5955 15.7253 11.4569 15.7723 11.3142 15.8017C11.15 15.8342 10.9967 15.8333 10.8758 15.8333H9.12332C9.00332 15.8333 8.84999 15.8333 8.68749 15.8017C8.54595 15.7729 8.40851 15.7267 8.27832 15.6642C8.15656 15.6026 8.04151 15.5286 7.93499 15.4433L7.91665 15.4292C7.84623 15.3757 7.77678 15.321 7.70832 15.265L7.63749 15.765C7.57187 16.2246 7.37956 16.6569 7.08209 17.0134C6.78463 17.3699 6.39377 17.6365 5.95332 17.7833L1.92999 19.1242C1.72025 19.194 1.49135 19.1777 1.29366 19.0787C1.09596 18.9798 0.945661 18.8064 0.875821 18.5967C0.805981 18.3869 0.822321 18.158 0.921246 17.9603C1.02017 17.7626 1.19358 17.6123 1.40332 17.5425L5.42582 16.2017C5.57265 16.1528 5.70297 16.064 5.80217 15.9452C5.90138 15.8264 5.96554 15.6824 5.98749 15.5292L6.25165 13.6767C5.64749 12.7967 5.23499 11.82 4.97249 10.8325C4.75642 10.8254 4.55158 10.7345 4.40122 10.5792C4.25086 10.4239 4.16675 10.2162 4.16665 10V7.91667C4.16675 7.76564 4.2079 7.61747 4.2857 7.488C4.36349 7.35854 4.47501 7.25266 4.60832 7.18167ZM9.99999 3.33334C8.06915 3.33334 6.24999 4.99584 6.24999 7.79167C6.24999 10.0792 6.97249 12.62 8.92499 14.1017L8.98499 14.1475L9.00999 14.165L9.06082 14.1667H10.9392L10.9892 14.165L11.0125 14.1483L11.0708 14.1033C13.0233 12.6058 13.75 9.86084 13.75 7.7925C13.75 4.99584 11.9308 3.33334 9.99999 3.33334Z" fill="black"/>
</svg>
