<svg width="21" height="21" viewBox="0 0 21 21" fill="none" xmlns="http://www.w3.org/2000/svg">
<path fill-rule="evenodd" clip-rule="evenodd" d="M8.17427 3.71612C8.34897 3.5637 8.57702 3.48684 8.80835 3.50242C9.03967 3.51801 9.25535 3.62476 9.40802 3.79924L12.3218 7.12862L12.3778 7.19162L12.3795 7.19249L12.4513 7.23624L17.871 10.4239C18.3846 10.7249 18.7705 10.9524 19.0803 11.2569C19.5385 11.7079 19.8637 12.2764 20.02 12.9001C20.125 13.3219 20.125 13.769 20.125 14.364V14.483C20.125 14.6571 20.125 14.826 20.1163 14.9704C20.1078 15.155 20.0706 15.3371 20.006 15.5102C19.9181 15.7361 19.7841 15.9413 19.6127 16.1127C19.4413 16.2841 19.2362 16.418 19.0103 16.506C18.8371 16.5703 18.6549 16.6072 18.4704 16.6154C18.326 16.625 18.1571 16.625 17.983 16.625H3.2839C3.0389 16.625 2.8044 16.625 2.60665 16.6075C2.35355 16.5929 2.10652 16.5243 1.88215 16.4062C1.53558 16.2149 1.26414 15.9117 1.11215 15.5461C1.01945 15.3102 0.978275 15.0572 0.991397 14.8041C0.996647 14.6055 1.0229 14.3719 1.05002 14.1286L1.58115 9.34412C1.6074 9.10962 1.6319 8.88562 1.66865 8.69924C1.70627 8.49887 1.7719 8.25912 1.92415 8.03074C2.18118 7.64484 2.58085 7.37672 3.0354 7.28524C3.30402 7.23099 3.55165 7.26162 3.75115 7.30274C3.93665 7.33949 4.15365 7.40162 4.38027 7.46637L4.4074 7.47424C4.97265 7.63612 5.1389 7.67899 5.2964 7.69037C5.4914 7.70512 5.68749 7.68707 5.87652 7.63699C6.02965 7.59587 6.18452 7.52324 6.7104 7.26074L9.0764 6.07687L8.09115 4.95249C8.01541 4.86595 7.95747 4.76532 7.92065 4.65636C7.88384 4.54741 7.86886 4.43226 7.87658 4.31751C7.8843 4.20276 7.91456 4.09066 7.96565 3.98762C8.01673 3.88458 8.08762 3.79174 8.17427 3.71612ZM10.2681 7.43837L7.4244 8.85937C6.9974 9.07374 6.67452 9.23562 6.32715 9.32749C5.94862 9.42844 5.55582 9.46512 5.16515 9.43599C4.80727 9.40887 4.4599 9.30912 4.00052 9.17787L3.92702 9.15687C3.75453 9.10429 3.58031 9.0576 3.40465 9.01687L3.38977 9.01512L3.38627 9.02999C3.36527 9.13937 3.34777 9.29249 3.31715 9.56549L2.79215 14.2922C2.76843 14.4774 2.7515 14.6633 2.7414 14.8496V14.8636L2.75452 14.8645C2.86827 14.8741 3.0284 14.875 3.31452 14.875H17.962C18.165 14.875 18.277 14.875 18.3575 14.8697L18.3689 14.8689V14.8575C18.3746 14.7255 18.3766 14.5933 18.375 14.4611C18.375 13.7261 18.3689 13.51 18.3225 13.3254C18.2443 13.0135 18.0818 12.7293 17.8526 12.5037C17.717 12.3707 17.5341 12.2561 16.9006 11.8825L16.0843 11.403L15.0561 12.4311C14.8911 12.5905 14.6701 12.6787 14.4407 12.6767C14.2112 12.6747 13.9918 12.5827 13.8296 12.4205C13.6673 12.2582 13.5753 12.0388 13.5733 11.8093C13.5713 11.5799 13.6595 11.3589 13.8189 11.1939L14.5259 10.4869L13.0541 9.62062L11.5561 11.1186C11.3911 11.278 11.1701 11.3662 10.9407 11.3642C10.7112 11.3622 10.4918 11.2702 10.3296 11.108C10.1673 10.9457 10.0753 10.7263 10.0733 10.4968C10.0713 10.2674 10.1595 10.0464 10.3189 9.88137L11.4958 8.70362C11.3124 8.59736 11.1499 8.45859 11.0163 8.29412L10.2681 7.43837Z" fill="black"/>
<path d="M1.75 17.5C1.51794 17.5 1.29538 17.5922 1.13128 17.7563C0.967187 17.9204 0.875 18.1429 0.875 18.375C0.875 18.6071 0.967187 18.8296 1.13128 18.9937C1.29538 19.1578 1.51794 19.25 1.75 19.25H19.25C19.4821 19.25 19.7046 19.1578 19.8687 18.9937C20.0328 18.8296 20.125 18.6071 20.125 18.375C20.125 18.1429 20.0328 17.9204 19.8687 17.7563C19.7046 17.5922 19.4821 17.5 19.25 17.5H1.75Z" fill="black"/>
</svg>
