<svg width="37" height="36" viewBox="0 0 37 36" fill="none" xmlns="http://www.w3.org/2000/svg">
<path d="M2 2H7.83333L11.7417 21.5271C11.875 22.1985 12.2403 22.8016 12.7735 23.2309C13.3067 23.6601 13.9739 23.8881 14.6583 23.875H28.8333C29.5177 23.8881 30.1849 23.6601 30.7182 23.2309C31.2514 22.8016 31.6166 22.1985 31.75 21.5271L34.0833 9.29167H9.29167M15.125 31.1667C15.125 31.9721 14.4721 32.625 13.6667 32.625C12.8613 32.625 12.2083 31.9721 12.2083 31.1667C12.2083 30.3613 12.8613 29.7083 13.6667 29.7083C14.4721 29.7083 15.125 30.3613 15.125 31.1667ZM31.1667 31.1667C31.1667 31.9721 30.5137 32.625 29.7083 32.625C28.9029 32.625 28.25 31.9721 28.25 31.1667C28.25 30.3613 28.9029 29.7083 29.7083 29.7083C30.5137 29.7083 31.1667 30.3613 31.1667 31.1667Z" stroke="#1E1E1E" stroke-width="4" stroke-linecap="round" stroke-linejoin="round"/>
</svg>
