<svg width="20" height="20" viewBox="0 0 20 20" fill="none" xmlns="http://www.w3.org/2000/svg">
<path fill-rule="evenodd" clip-rule="evenodd" d="M10.7383 2.0975C10.6532 1.98174 10.5419 1.88763 10.4137 1.82276C10.2854 1.7579 10.1437 1.72411 10 1.72411C9.85627 1.72411 9.71456 1.7579 9.58631 1.82276C9.45805 1.88763 9.34684 1.98174 9.26166 2.0975L4.29333 8.85834C4.20707 8.97564 4.15 9.1118 4.12683 9.25555C4.10366 9.3993 4.11507 9.5465 4.16011 9.68496C4.20515 9.82342 4.28253 9.94916 4.38583 10.0518C4.48914 10.1544 4.6154 10.2309 4.75416 10.275L5.82666 10.615L3.5275 14.4458C3.44421 14.585 3.39932 14.7437 3.3974 14.9058C3.39549 15.068 3.43661 15.2277 3.51659 15.3688C3.59656 15.5098 3.71252 15.6272 3.85264 15.7088C3.99276 15.7904 4.15201 15.8334 4.31416 15.8333H8.33333V16.6667C8.33333 17.1087 8.50893 17.5326 8.82149 17.8452C9.13405 18.1577 9.55797 18.3333 10 18.3333C10.442 18.3333 10.8659 18.1577 11.1785 17.8452C11.4911 17.5326 11.6667 17.1087 11.6667 16.6667V15.8333H15.6858C15.8481 15.8335 16.0075 15.7905 16.1477 15.7088C16.288 15.6272 16.404 15.5098 16.484 15.3686C16.564 15.2274 16.6051 15.0675 16.6031 14.9052C16.6011 14.743 16.556 14.5841 16.4725 14.445L14.1733 10.6142L15.2458 10.2742C15.3846 10.2301 15.5109 10.1535 15.6142 10.0509C15.7175 9.94833 15.7948 9.82259 15.8399 9.68412C15.8849 9.54566 15.8963 9.39846 15.8732 9.25472C15.85 9.11097 15.7929 8.9748 15.7067 8.8575L10.7383 2.0975ZM6.255 9.00167L10 3.90834L13.745 9.0025L12.765 9.31334C12.6331 9.35523 12.5123 9.42645 12.4118 9.52167C12.3114 9.61689 12.2338 9.73363 12.1849 9.86313C12.1359 9.99263 12.117 10.1315 12.1294 10.2694C12.1419 10.4073 12.1854 10.5405 12.2567 10.6592L14.3617 14.1667H5.63833L7.74333 10.6583C7.81463 10.5397 7.85813 10.4064 7.87057 10.2686C7.88301 10.1307 7.86406 9.99179 7.81515 9.86229C7.76623 9.7328 7.68863 9.61606 7.58815 9.52084C7.48767 9.42562 7.36694 9.35439 7.235 9.3125L6.255 9.00167Z" fill="black"/>
</svg>
