<svg width="20" height="20" viewBox="0 0 20 20" fill="none" xmlns="http://www.w3.org/2000/svg">
<path fill-rule="evenodd" clip-rule="evenodd" d="M4.16668 7.96917C4.16668 4.26417 6.81168 1.66667 10 1.66667C13.1742 1.66667 15.8083 4.24001 15.8333 7.91667V16.5442C15.8333 16.5933 15.8292 16.6417 15.8225 16.6883L18.5783 17.5367C18.683 17.5688 18.7802 17.6213 18.8646 17.6911C18.9489 17.7608 19.0187 17.8465 19.0699 17.9433C19.1211 18.04 19.1528 18.1458 19.1631 18.2548C19.1734 18.3638 19.1622 18.4737 19.13 18.5783C19.0978 18.683 19.0454 18.7802 18.9756 18.8646C18.9059 18.9489 18.8202 19.0187 18.7234 19.0699C18.6267 19.1211 18.5208 19.1528 18.4119 19.1631C18.3029 19.1734 18.193 19.1622 18.0883 19.13L13.6558 17.7658C13.2121 17.6293 12.8151 17.3719 12.5094 17.0225C12.2037 16.6731 12.0014 16.2455 11.925 15.7875L11.915 15.7233C11.8008 15.8042 11.6842 15.8817 11.565 15.9558L11.5492 15.965C11.4733 16.0117 11.3758 16.0733 11.2458 16.1258C11.1375 16.17 11.0058 16.2075 10.8908 16.2267C10.7508 16.25 10.6217 16.25 10.52 16.25H9.48001C9.37835 16.25 9.24918 16.25 9.11085 16.2275C8.99017 16.2066 8.87202 16.1731 8.75835 16.1275C8.62918 16.0758 8.53085 16.015 8.45418 15.9683L8.43835 15.9583C8.31838 15.8845 8.20055 15.8073 8.08501 15.7267L8.07501 15.7875C7.99866 16.2455 7.7963 16.6731 7.49059 17.0225C7.18489 17.3719 6.78792 17.6293 6.34418 17.7658L1.91168 19.13C1.80706 19.1622 1.69713 19.1734 1.58816 19.1631C1.47919 19.1528 1.37332 19.1211 1.27659 19.0699C1.17986 19.0187 1.09417 18.9489 1.02441 18.8646C0.954652 18.7802 0.902187 18.683 0.870013 18.5783C0.837839 18.4737 0.826586 18.3638 0.836898 18.2548C0.847209 18.1458 0.878883 18.04 0.93011 17.9433C1.03357 17.7479 1.21039 17.6017 1.42168 17.5367L4.16668 16.6925V7.96917ZM7.91668 5.65584V13.3558C8.33994 13.8377 8.83491 14.2514 9.38418 14.5825H9.42668L9.50501 14.5833H10.5733L10.615 14.5825L10.635 14.5708L10.6867 14.5392C11.77 13.8675 12.6458 12.76 13.2542 11.5167C13.6675 10.6717 13.94 9.80001 14.0725 9.01417L14.1392 8.21834L7.91668 5.65584Z" fill="black"/>
</svg>
